<?xml version="1.0" encoding="utf-8"?>
<!-- Generator: Adobe Illustrator 22.0.0, SVG Export Plug-In . SVG Version: 6.00 Build 0)  -->
<svg version="1.1" id="fi-hilfe-20" xmlns="http://www.w3.org/2000/svg" xmlns:xlink="http://www.w3.org/1999/xlink" x="0px"
	 y="0px" viewBox="0 0 20 20" style="enable-background:new 0 0 20 20;" xml:space="preserve">
<path id="fi-hilfe-20-schatten" style="fill:#555B5D;fill-opacity:0.2;" d="M11,2c-4.971,0-9,4.029-9,9c0,4.971,4.029,9,9,9
	s9-4.029,9-9C20,6.029,15.971,2,11,2z"/>
<path id="fi-hilfe-20-kontur" style="fill:#22421A;fill-opacity:0.9;" d="M10,1c-4.971,0-9,4.029-9,9c0,4.971,4.029,9,9,9
	s9-4.029,9-9C19,5.029,14.971,1,10,1z"/>
<g id="fi-hilfe-20-farbe">
	<linearGradient id="SVGID_1_" gradientUnits="userSpaceOnUse" x1="1.6232" y1="5.1636" x2="17.875" y2="14.5466">
		<stop  offset="0.0035" style="stop-color:#99DC2E"/>
		<stop  offset="1" style="stop-color:#469900"/>
	</linearGradient>
	<circle style="fill:url(#SVGID_1_);" cx="10" cy="10" r="8"/>
</g>
<path id="fi-hilfe-20-schatten-fz" style="fill:#414141;fill-opacity:0.3;" d="M11.98,14H9.988
	c-0.005-0.286-0.008-0.461-0.008-0.523c0-0.646,0.106-1.177,0.32-1.594s0.641-0.886,1.281-1.406s1.023-0.862,1.148-1.023
	c0.192-0.255,0.289-0.536,0.289-0.844c0-0.427-0.171-0.793-0.512-1.098s-0.801-0.457-1.379-0.457c-0.558,0-1.023,0.159-1.398,0.477
	S9.098,8.333,8.957,8.984l-2.016-0.25c0.058-0.933,0.454-1.724,1.191-2.375s1.704-0.977,2.902-0.977
	c1.261,0,2.263,0.329,3.008,0.988s1.117,1.426,1.117,2.301c0,0.484-0.137,0.942-0.41,1.375s-0.858,1.021-1.754,1.766
	c-0.464,0.386-0.751,0.695-0.863,0.93S11.97,13.396,11.98,14z M10,17v-2h2v2H10z"/>
<path id="fi-hilfe-20-farbe-fz" style="fill:#FFFFFF;" d="M10.98,13H8.988c-0.005-0.286-0.008-0.461-0.008-0.523
	c0-0.646,0.106-1.177,0.32-1.594s0.641-0.886,1.281-1.406s1.023-0.862,1.148-1.023c0.192-0.255,0.289-0.536,0.289-0.844
	c0-0.427-0.171-0.793-0.512-1.098s-0.801-0.457-1.379-0.457c-0.558,0-1.023,0.159-1.398,0.477S8.098,7.333,7.957,7.984l-2.016-0.25
	c0.058-0.933,0.454-1.724,1.191-2.375s1.704-0.977,2.902-0.977c1.261,0,2.263,0.329,3.008,0.988s1.117,1.426,1.117,2.301
	c0,0.484-0.137,0.942-0.41,1.375s-0.858,1.021-1.754,1.766c-0.464,0.386-0.751,0.695-0.863,0.93S10.97,12.396,10.98,13z M9,16v-2h2
	v2H9z"/>
</svg>
