<?xml version="1.0" encoding="utf-8"?>
<!-- Generator: Adobe Illustrator 22.0.0, SVG Export Plug-In . SVG Version: 6.00 Build 0)  -->
<svg version="1.1" id="fi-information-16" xmlns="http://www.w3.org/2000/svg" xmlns:xlink="http://www.w3.org/1999/xlink" x="0px"
	 y="0px" viewBox="0 0 16 16" style="enable-background:new 0 0 16 16;" xml:space="preserve">
<rect id="fi-information-16-schatten" x="2" y="2" style="fill:#555B5D;fill-opacity:0.2;" width="14" height="14"/>
<rect id="fi-information-16-kontur" x="1" y="1" style="fill:#2E4557;fill-opacity:0.9;" width="14" height="14"/>
<linearGradient id="fi-information-16-farbe_1_" gradientUnits="userSpaceOnUse" x1="-1.1264" y1="2.7309" x2="14.4011" y2="11.6957">
	<stop  offset="0" style="stop-color:#DBF1FB"/>
	<stop  offset="0.5" style="stop-color:#3FA4DA"/>
	<stop  offset="1" style="stop-color:#0A8DC6"/>
</linearGradient>
<rect id="fi-information-16-farbe" x="2" y="2" style="fill:url(#fi-information-16-farbe_1_);" width="12" height="12"/>
<polygon id="fi-information-16-schatten-i" style="fill:#414141;fill-opacity:0.3;" points="10,12 10,7 7.667,7 7,7 7,8 8,8 8,12 
	6.5,12 6.5,13 10,13 11,13 11,12 "/>
<rect id="fi-information-16-schatten-i-punkt" x="8" y="4" style="fill:#414141;fill-opacity:0.3;" width="2" height="1.75"/>
<polygon id="fi-information-16-farbe-i" style="fill:#FFFFFF;" points="9,11 9,6 6.667,6 6,6 6,7 7,7 7,11 5.5,11 5.5,12 9,12 
	10,12 10,11 "/>
<rect id="fi-information-16-farbe-i-punkt" x="7" y="3" style="fill:#FFFFFF;" width="2" height="1.75"/>
</svg>
