<?xml version="1.0" encoding="utf-8"?>
<!-- Generator: Adobe Illustrator 22.0.0, SVG Export Plug-In . SVG Version: 6.00 Build 0)  -->
<svg version="1.1" id="sli-breadcrumb" xmlns="http://www.w3.org/2000/svg" xmlns:xlink="http://www.w3.org/1999/xlink" x="0px"
	 y="0px" viewBox="0 0 10 18" style="enable-background:new 0 0 10 18;" xml:space="preserve">
<path id="sli-breadcrumb-farbe" style="fill-rule:evenodd;clip-rule:evenodd;fill:#CBCAC9;" d="M8.368,7.824L2.809,1.377
	C2.427,0.929,1.774,0.869,1.334,1.259C0.899,1.644,0.901,2.265,1.272,2.714L5.93,8.194C6.126,8.426,6.223,8.713,6.228,9
	C6.223,9.287,6.126,9.574,5.93,9.806l-4.659,5.479c-0.371,0.449-0.373,1.07,0.062,1.456c0.44,0.39,1.093,0.33,1.476-0.118
	l5.559-6.448C8.813,9.722,8.994,9.346,9,9C8.994,8.654,8.813,8.278,8.368,7.824z"/>
<path id="sli-breadcrumb-schattenkante-oben" style="fill:#555B5D;fill-opacity:0.3;" d="M2.809,2.377l5.559,6.448
	C8.609,9.07,8.767,9.292,8.868,9.5C8.952,9.324,8.997,9.159,9,9C8.994,8.654,8.813,8.278,8.368,7.824L2.809,1.377
	C2.427,0.929,1.774,0.869,1.334,1.259C0.962,1.588,0.927,2.083,1.15,2.503C1.201,2.417,1.252,2.33,1.334,2.259
	C1.774,1.869,2.427,1.929,2.809,2.377z"/>
<path id="sli-breadcrumb-schattenkante-unten" style="fill:#555B5D;fill-opacity:0.3;" d="M5.931,9.806l-4.659,5.479
	c-0.083,0.101-0.141,0.212-0.187,0.325c-0.021,0.054-0.031,0.11-0.042,0.166c-0.012,0.053-0.022,0.105-0.026,0.159
	c-0.004,0.078,0,0.156,0.014,0.233c0.004,0.023,0.01,0.046,0.016,0.069c0.023,0.09,0.054,0.178,0.104,0.26
	c0.038-0.072,0.067-0.146,0.121-0.212l4.659-5.479C6.126,10.574,6.223,10.287,6.228,10c-0.003-0.172,0-0.716,0-1
	C6.223,9.287,6.126,9.574,5.931,9.806z"/>
<path id="sli-breadcrumb-lichtkante-unten" style="fill:#FFFFFF;" d="M9,9.5C8.999,9.419,8.985,9.335,8.964,9.25
	c-0.071,0.277-0.255,0.578-0.595,0.925l-5.559,6.448C2.598,16.871,2.303,17,2.008,17c-0.239,0-0.478-0.084-0.675-0.259
	c-0.158-0.14-0.239-0.315-0.285-0.498c-0.093,0.356-0.014,0.733,0.285,0.998c0.104,0.092,0.221,0.154,0.342,0.197
	c0.046,0.011,0.092,0.019,0.139,0.026c0.084,0.017,0.168,0.034,0.253,0.029c0.02-0.001,0.039-0.005,0.059-0.007
	c0.254-0.03,0.5-0.149,0.683-0.364l5.559-6.448C8.813,10.222,8.994,9.846,9,9.5z"/>
<path id="sli-breadcrumb-lichtkante-oben" style="fill:#FFFFFF;" d="M5.93,8.193L1.272,2.714C1.156,2.575,1.09,2.417,1.048,2.257
	c-0.08,0.32-0.013,0.672,0.224,0.957L5.93,8.694C6.068,8.857,6.14,9.051,6.182,9.25C6.2,9.167,6.226,9.085,6.228,9
	C6.223,8.713,6.126,8.426,5.93,8.193z"/>
</svg>
