<?xml version="1.0" encoding="utf-8"?>
<!-- Generator: Adobe Illustrator 22.0.0, SVG Export Plug-In . SVG Version: 6.00 Build 0)  -->
<svg version="1.1" id="sli-pfeil-rechts_1_" xmlns="http://www.w3.org/2000/svg" xmlns:xlink="http://www.w3.org/1999/xlink"
	 x="0px" y="0px" viewBox="0 0 8 14" style="enable-background:new 0 0 8 14;" xml:space="preserve">
<path id="sli-pfeil-rechts" style="fill-rule:evenodd;clip-rule:evenodd;fill:#555B5D;" d="M6.484,6.118L2.315,1.283
	C2.028,0.946,1.538,0.902,1.208,1.194C0.882,1.483,0.884,1.949,1.162,2.286l3.494,4.11C4.803,6.569,4.875,6.784,4.879,7
	C4.875,7.216,4.803,7.431,4.656,7.605l-3.494,4.11c-0.278,0.337-0.28,0.803,0.046,1.092c0.33,0.292,0.82,0.247,1.107-0.089
	l4.169-4.836C6.818,7.542,6.954,7.26,6.958,7C6.954,6.74,6.818,6.458,6.484,6.118z"/>
</svg>
