<?xml version="1.0" encoding="utf-8"?>
<svg version="1.1" id="sli-schliessen_1_" xmlns="http://www.w3.org/2000/svg" xmlns:xlink="http://www.w3.org/1999/xlink" x="0px"
	 y="0px" viewBox="0 0 12 12" style="enable-background:new 0 0 12 12;" xml:space="preserve">
<path id="sli-schliessen" style="fill:#555B5D;" d="M10.768,1.232L10.768,1.232c-0.31-0.31-0.812-0.31-1.122,0l-3.66,3.658
	L2.354,1.235C2.045,0.924,1.542,0.923,1.232,1.233l0,0c-0.309,0.309-0.309,0.81,0,1.119l3.647,3.645L1.233,9.642
	c-0.31,0.31-0.31,0.812,0,1.121l0,0c0.31,0.31,0.812,0.31,1.122,0L6,7.119l3.657,3.655c0.303,0.303,0.795,0.301,1.096-0.004l0,0
	c0.297-0.301,0.296-0.785-0.002-1.085L7.104,6.016l3.664-3.662C11.077,2.044,11.077,1.542,10.768,1.232z"/>
</svg>
