<?xml version="1.0" encoding="utf-8"?>
<!-- Generator: Adobe Illustrator 22.0.0, SVG Export Plug-In . SVG Version: 6.00 Build 0)  -->
<svg version="1.1" id="sli-pfeil-runter_1_" xmlns="http://www.w3.org/2000/svg" xmlns:xlink="http://www.w3.org/1999/xlink"
	 x="0px" y="0px" viewBox="0 0 14 8.083" style="enable-background:new 0 0 14 8.083;" xml:space="preserve">
<path id="sli-pfeil-runter" style="fill-rule:evenodd;clip-rule:evenodd;fill:#5EB226;" d="M7.882,6.526l4.836-4.169
	c0.336-0.287,0.381-0.777,0.089-1.107c-0.289-0.326-0.755-0.325-1.092-0.046l-4.11,3.494C7.431,4.844,7.216,4.917,7,4.921
	C6.784,4.917,6.569,4.844,6.395,4.698l-4.11-3.494C1.949,0.925,1.483,0.924,1.194,1.25C0.902,1.58,0.946,2.07,1.283,2.357
	l4.836,4.169C6.458,6.86,6.74,6.995,7,7C7.26,6.995,7.542,6.86,7.882,6.526z"/>
</svg>
