<?xml version="1.0" encoding="utf-8"?>
<!-- Generator: Adobe Illustrator 22.0.0, SVG Export Plug-In . SVG Version: 6.00 Build 0)  -->
<svg version="1.1" id="sli-checkmark" xmlns="http://www.w3.org/2000/svg" xmlns:xlink="http://www.w3.org/1999/xlink" x="0px"
	 y="0px" viewBox="0 0 16 16" style="enable-background:new 0 0 16 16;" xml:space="preserve">
<path id="checkmark-flaeche" style="fill:#5EB226;" d="M13.2,3.52L6.81,9.73c-0.151,0.145-0.389,0.145-0.54,0L3.64,7.24L3.33,6.95
	C3.21,6.83,3,6.74,3,7.28c0,0.26,0,0.53,0,0.79c0,0.168,0.052,0.333,0.15,0.47l2.75,3.91c0.62,0.81,0.82,0.65,1.33,0l6.54-8.25
	c0.142-0.184,0.223-0.408,0.23-0.64c0-0.32,0-0.22,0-0.39S13.82,2.92,13.2,3.52z"/>
</svg>
