<?xml version="1.0" encoding="utf-8"?><svg width="106" height="92" viewBox="0 0 106 92" xmlns="http://www.w3.org/2000/svg" xmlns:xlink="http://www.w3.org/1999/xlink"><svg viewBox="0 0 16 16" width="16" height="16" id="fi-fehler-16" x="90" y="16" xmlns="http://www.w3.org/2000/svg"><circle cx="9" cy="9" r="7" fill="#555b5d" fill-opacity=".2"/><circle cx="8" cy="8" r="7" fill="#78000b" fill-opacity=".9"/><linearGradient id="aa" gradientUnits="userSpaceOnUse" x1="1.045" y1="3.985" x2="13.734" y2="11.31"><stop offset="0" stop-color="#fff"/><stop offset=".102" stop-color="#fc9da8"/><stop offset=".255" stop-color="#f70e27"/><stop offset="1" stop-color="#c10014"/></linearGradient><circle cx="8" cy="8" r="6" fill="url(#aa)"/><path fill="#414141" fill-opacity=".3" d="M8 4h2v6H8zM8 11.5h2V13H8z"/><path fill="#fff" d="M7 3h2v6H7zM7 10.5h2V12H7z"/></svg><svg viewBox="0 0 32 32" enable-background="new 0 0 32 32" width="32" height="32" id="fi-fehler-32" y="44" xmlns="http://www.w3.org/2000/svg"><filter id="ba"><feGaussianBlur in="SourceAlpha" stdDeviation="1"/><feOffset dx="1" dy="2" result="offsetblur"/><feFlood flood-color="#555B5D"/><feComposite in2="offsetblur" operator="in"/><feComponentTransfer><feFuncA slope=".5" type="linear"/></feComponentTransfer></filter><g filter="url(#ba)"><circle cx="16" cy="16" r="13" fill="#fff"/></g><circle cx="16" cy="16" r="14" fill="#78000b" fill-opacity=".9"/><linearGradient id="bb" gradientUnits="userSpaceOnUse" x1="1.079" y1="7.385" x2="30.608" y2="24.434"><stop offset="0" stop-color="#fff"/><stop offset=".102" stop-color="#fc9da8"/><stop offset=".255" stop-color="#f70e27"/><stop offset="1" stop-color="#c10014"/></linearGradient><circle cx="16" cy="16" r="13" fill="url(#bb)"/><path fill="#414141" fill-opacity=".3" d="M15 7h3v15h-3zM15 24h3v3h-3z"/><path fill="#fff" d="M14 6h3v15h-3zM14 23h3v3h-3z"/></svg><svg viewBox="0 0 20 20" width="20" height="20" id="fi-hilfe-20" x="32" y="44" xmlns="http://www.w3.org/2000/svg"><path d="M11 2a9 9 0 0 0-9 9c0 4.971 4.029 9 9 9s9-4.029 9-9a9 9 0 0 0-9-9z" fill="#555b5d" fill-opacity=".2"/><path d="M10 1a9 9 0 0 0-9 9c0 4.971 4.029 9 9 9s9-4.029 9-9a9 9 0 0 0-9-9z" fill="#22421a" fill-opacity=".9"/><linearGradient id="ca" gradientUnits="userSpaceOnUse" x1="1.623" y1="5.164" x2="17.875" y2="14.547"><stop offset=".004" stop-color="#99dc2e"/><stop offset="1" stop-color="#469900"/></linearGradient><circle cx="10" cy="10" r="8" fill="url(#ca)"/><path d="M11.98 14H9.988a51.98 51.98 0 0 1-.008-.523c0-.646.106-1.177.32-1.594s.641-.886 1.281-1.406 1.023-.862 1.148-1.023c.192-.255.289-.536.289-.844 0-.427-.171-.793-.512-1.098s-.801-.457-1.379-.457c-.558 0-1.023.159-1.398.477s-.631.801-.772 1.452l-2.016-.25c.058-.933.454-1.724 1.191-2.375s1.704-.977 2.902-.977c1.261 0 2.263.329 3.008.988s1.117 1.426 1.117 2.301c0 .484-.137.942-.41 1.375s-.858 1.021-1.754 1.766c-.464.386-.751.695-.863.93s-.162.654-.152 1.258zM10 17v-2h2v2h-2z" fill="#414141" fill-opacity=".3"/><path d="M10.98 13H8.988a51.98 51.98 0 0 1-.008-.523c0-.646.106-1.177.32-1.594s.641-.886 1.281-1.406 1.023-.862 1.148-1.023c.192-.255.289-.536.289-.844 0-.427-.171-.793-.512-1.098s-.801-.457-1.379-.457c-.558 0-1.023.159-1.398.477s-.631.801-.772 1.452l-2.016-.25c.058-.933.454-1.724 1.191-2.375s1.704-.977 2.902-.977c1.261 0 2.263.329 3.008.988s1.117 1.426 1.117 2.301c0 .484-.137.942-.41 1.375s-.858 1.021-1.754 1.766c-.464.386-.751.695-.863.93s-.162.654-.152 1.258zM9 16v-2h2v2H9z" fill="#fff"/></svg><svg viewBox="0 0 16 16" width="16" height="16" id="fi-information-16" y="76" xmlns="http://www.w3.org/2000/svg"><path fill="#555b5d" fill-opacity=".2" d="M2 2h14v14H2z"/><path fill="#2e4557" fill-opacity=".9" d="M1 1h14v14H1z"/><linearGradient id="da" gradientUnits="userSpaceOnUse" x1="-1.126" y1="2.731" x2="14.401" y2="11.696"><stop offset="0" stop-color="#dbf1fb"/><stop offset=".5" stop-color="#3fa4da"/><stop offset="1" stop-color="#0a8dc6"/></linearGradient><path fill="url(#da)" d="M2 2h12v12H2z"/><path fill="#414141" fill-opacity=".3" d="M10 12V7H7v1h1v4H6.5v1H11v-1zM8 4h2v1.75H8z"/><path fill="#fff" d="M9 11V6H6v1h1v4H5.5v1H10v-1zM7 3h2v1.75H7z"/></svg><svg viewBox="0 0 32 32" enable-background="new 0 0 32 32" width="32" height="32" id="fi-information-32" x="48" xmlns="http://www.w3.org/2000/svg"><filter id="ea"><feGaussianBlur in="SourceAlpha" stdDeviation="1"/><feOffset dx="1" dy="2" result="offsetblur"/><feFlood flood-color="#555B5D"/><feComposite in2="offsetblur" operator="in"/><feComponentTransfer><feFuncA slope=".5" type="linear"/></feComponentTransfer></filter><g filter="url(#ea)"><path fill="#fff" d="M3 3h26v26H3z"/></g><path fill="#2e4557" fill-opacity=".9" d="M2 2h28v28H2z"/><linearGradient id="eb" gradientUnits="userSpaceOnUse" x1="-3.774" y1="4.584" x2="29.869" y2="24.007"><stop offset="0" stop-color="#dbf1fb"/><stop offset=".5" stop-color="#3fa4da"/><stop offset="1" stop-color="#0a8dc6"/></linearGradient><path fill="url(#eb)" d="M3 3h26v26H3z"/><path d="M13 13h6v11.978c0 .335.086.574.257.717.247.203.558.305.933.305H21v1h-8v-1h1.614c.478 0 .828-.109 1.052-.328.222-.218.334-.536.334-.953v-8.996c0-.569-.174-.999-.522-1.288-.348-.291-.864-.435-1.549-.435H13v-1z" fill="#414141" fill-opacity=".3"/><circle cx="17" cy="8" r="1.875" fill="#414141" fill-opacity=".3"/><path d="M12 12h6v11.978c0 .335.086.574.257.717.247.203.558.305.933.305H20v1h-8v-1h1.614c.478 0 .828-.109 1.052-.328.222-.218.334-.536.334-.953v-8.996c0-.569-.174-.999-.522-1.288-.348-.291-.864-.435-1.549-.435H12v-1z" fill="#fff"/><circle cx="16" cy="7" r="1.875" fill="#fff"/></svg><svg viewBox="0 0 16 16" width="16" height="16" id="fi-kalender-16" x="90" y="32" xmlns="http://www.w3.org/2000/svg"><path fill="#555b5d" fill-opacity=".2" d="M2 2h14v14H2z"/><path fill="#555b5d" fill-opacity=".9" d="M1 5h14v10H1z"/><linearGradient id="fa" gradientUnits="userSpaceOnUse" x1="-1.793" y1="3.846" x2="13.432" y2="12.636"><stop offset=".004" stop-color="#fff"/><stop offset=".997" stop-color="#e4e3e2"/></linearGradient><path fill="url(#fa)" d="M2 5h12v9H2z"/><path fill="#2e4557" fill-opacity=".9" d="M1 1h14v4H1z"/><path fill="#4b6d8b" d="M2 4h12v1H2z"/><linearGradient id="fb" gradientUnits="userSpaceOnUse" x1="2" y1="3" x2="14" y2="3"><stop offset="0" stop-color="#9fd5f0"/><stop offset="1" stop-color="#7db5d3"/></linearGradient><path fill="url(#fb)" fill-opacity=".9" d="M2 2h12v2H2z"/><path d="M7 13H6V8c-.609.656-2.219.994-2.219.994V7.889C4.342 7.65 5.542 7.583 6 6h1v7zM8 7V6h5v1c-2.25 1.719-3 4.696-3 6H9c0-2.094 1.063-4.521 2.542-6H8z" fill="#414141"/></svg><svg viewBox="0 0 20 20" width="20" height="20" id="fi-ok-20" x="52" y="44" xmlns="http://www.w3.org/2000/svg"><path fill="#555b5d" fill-opacity=".2" d="M3 10v3l7.5 6L19 3h-3L9 14z"/><path fill="#22421a" fill-opacity=".9" d="M2 9v3l7.5 6L18 2h-3L8 13z"/><linearGradient id="ga" gradientUnits="userSpaceOnUse" x1="9.71" y1="7.972" x2="17.454" y2="12.443"><stop offset=".004" stop-color="#99dc2e"/><stop offset="1" stop-color="#469900"/></linearGradient><path fill="url(#ga)" d="M16.336 3L9.183 16.466 3 11.519v-.65l4.445 2.963.85.567.549-.862L15.549 3h.787"/></svg><svg viewBox="0 0 16 16" width="16" height="16" id="fi-warnung-16" x="90" xmlns="http://www.w3.org/2000/svg"><path d="M3.557 16h10.886a1.555 1.555 0 0 0 1.391-2.251L10.391 2.86c-.573-1.147-2.209-1.147-2.782 0L2.166 13.749A1.555 1.555 0 0 0 3.557 16z" fill="#555b5d" fill-opacity=".2"/><path d="M2.557 15h10.886a1.555 1.555 0 0 0 1.391-2.251L9.391 1.86C8.818.713 7.182.713 6.609 1.86L1.166 12.749A1.555 1.555 0 0 0 2.557 15z" fill="#ba6806" fill-opacity=".9"/><linearGradient id="ha" gradientUnits="userSpaceOnUse" x1="4.587" y1="7.6" x2="12.914" y2="12.407"><stop offset="0" stop-color="#f7e8ae"/><stop offset=".181" stop-color="#ffdf17"/><stop offset="1" stop-color="#ffb717"/></linearGradient><path d="M8 2c.103 0 .358.03.497.307l5.443 10.889c.125.25.025.461-.024.54s-.194.264-.473.264H2.557c-.279 0-.423-.184-.472-.263s-.149-.29-.024-.54l5.442-10.89A.543.543 0 0 1 8 2" fill="url(#ha)"/><path fill="#414141" d="M7 5h2v5H7zM7 11h2v1.5H7z"/></svg><svg viewBox="0 0 32 32" enable-background="new 0 0 32 32" width="32" height="32" id="fi-warnung-32" x="16" xmlns="http://www.w3.org/2000/svg"><filter id="ia"><feGaussianBlur in="SourceAlpha" stdDeviation="1"/><feOffset dx="1" dy="2" result="offsetblur"/><feFlood flood-color="#555B5D"/><feComposite in2="offsetblur" operator="in"/><feComponentTransfer><feFuncA slope=".5" type="linear"/></feComponentTransfer></filter><path d="M16 3c.824 0 1.536.44 1.904 1.177l10.867 21.742a2.118 2.118 0 0 1-.093 2.071A2.115 2.115 0 0 1 26.867 29H5.133c-.743 0-1.42-.377-1.811-1.01a2.113 2.113 0 0 1-.093-2.071L14.096 4.177A2.09 2.09 0 0 1 16 3" fill="#fff" filter="url(#ia)"/><path d="M5.133 30h21.734c2.326 0 3.839-2.447 2.799-4.528L18.799 3.73c-1.153-2.307-4.445-2.307-5.598 0L2.334 25.472C1.294 27.553 2.807 30 5.133 30z" fill="#d87305" fill-opacity=".9"/><linearGradient id="ib" gradientUnits="userSpaceOnUse" x1="8.839" y1="15" x2="22.475" y2="22.872"><stop offset="0" stop-color="#f7e8ae"/><stop offset=".181" stop-color="#ffdf17"/><stop offset="1" stop-color="#ffb717"/></linearGradient><path d="M16 3c.824 0 1.536.44 1.904 1.177l10.867 21.742a2.118 2.118 0 0 1-.093 2.071A2.115 2.115 0 0 1 26.867 29H5.133c-.743 0-1.42-.377-1.811-1.01a2.113 2.113 0 0 1-.093-2.071L14.096 4.177A2.09 2.09 0 0 1 16 3" fill="url(#ib)"/><path fill="#414141" d="M15 8h3v13h-3zM15 23h3v3h-3z"/></svg><svg viewBox="0 0 10 18" width="10" height="18" id="sli-breadcrumb" x="80" xmlns="http://www.w3.org/2000/svg"><path d="M8.368 7.824L2.809 1.377C2.427.929 1.774.869 1.334 1.259c-.435.385-.433 1.006-.062 1.455l4.658 5.48c.196.232.293.519.298.806a1.279 1.279 0 0 1-.298.806l-4.659 5.479c-.371.449-.373 1.07.062 1.456.44.39 1.093.33 1.476-.118l5.559-6.448C8.813 9.722 8.994 9.346 9 9c-.006-.346-.187-.722-.632-1.176z" fill-rule="evenodd" clip-rule="evenodd" fill="#cbcac9"/><path d="M2.809 2.377l5.559 6.448c.241.245.399.467.5.675.084-.176.129-.341.132-.5-.006-.346-.187-.722-.632-1.176L2.809 1.377C2.427.929 1.774.869 1.334 1.259c-.372.329-.407.824-.184 1.244.051-.086.102-.173.184-.244.44-.39 1.093-.33 1.475.118zM5.931 9.806l-4.659 5.479a1.238 1.238 0 0 0-.187.325c-.021.054-.031.11-.042.166a1.075 1.075 0 0 0-.026.159c-.004.078 0 .156.014.233.004.023.01.046.016.069.023.09.054.178.104.26.038-.072.067-.146.121-.212l4.659-5.479c.195-.232.292-.519.297-.806-.003-.172 0-.716 0-1a1.283 1.283 0 0 1-.297.806z" fill="#555b5d" fill-opacity=".3"/><path d="M9 9.5a1.11 1.11 0 0 0-.036-.25c-.071.277-.255.578-.595.925L2.81 16.623a1.056 1.056 0 0 1-.802.377 1.01 1.01 0 0 1-.675-.259.947.947 0 0 1-.285-.498c-.093.356-.014.733.285.998.104.092.221.154.342.197.046.011.092.019.139.026a.988.988 0 0 0 .253.029c.02-.001.039-.005.059-.007.254-.03.5-.149.683-.364l5.559-6.448c.445-.452.626-.828.632-1.174zM5.93 8.193L1.272 2.714a1.154 1.154 0 0 1-.224-.457c-.08.32-.013.672.224.957l4.658 5.48c.138.163.21.357.252.556.018-.083.044-.165.046-.25a1.284 1.284 0 0 0-.298-.807z" fill="#fff"/></svg><svg viewBox="0 0 16 16" width="16" height="16" id="sli-checkmark" x="90" y="48" xmlns="http://www.w3.org/2000/svg"><path d="M13.2 3.52L6.81 9.73a.39.39 0 0 1-.54 0L3.64 7.24l-.31-.29c-.12-.12-.33-.21-.33.33v.79c0 .168.052.333.15.47l2.75 3.91c.62.81.82.65 1.33 0l6.54-8.25c.142-.184.223-.408.23-.64v-.39c0-.17-.18-.25-.8.35z" fill="#5eb226"/></svg><svg viewBox="0 0 16 44" enable-background="new 0 0 16 44" width="16" height="44" id="sli-lasche" xmlns="http://www.w3.org/2000/svg"><filter height="150%" id="la" width="150%" x="0" y="0"><feComponentTransfer in="SourceAlpha"><feFuncA tableValues="1 0" type="table"/></feComponentTransfer><feGaussianBlur stdDeviation="3"/><feOffset dx="-2" dy="2" result="offsetblur"/><feFlood flood-color="#000" flood-opacity="1" result="color"/><feComposite in2="offsetblur" operator="in"/><feComposite in2="SourceAlpha" operator="in"/><feMerge><feMergeNode in="SourceGraphic"/><feMergeNode/></feMerge></filter><filter height="300%" id="lb" width="300%"><feGaussianBlur in="SourceGraphic" stdDeviation="1"/><feOffset dx="1" dy="1" result="offsetblur"/><feFlood flood-color="#000" flood-opacity=".3"/><feComposite in2="offsetblur" operator="in"/><feMerge><feMergeNode/><feMergeNode in="[input-image]"/></feMerge></filter><path d="M4 2.906V0H0v43.906h4v-3c0-4 12-5 12-10v-18c0-5-12-6-12-10z" fill="#656c6a"/><g opacity=".4" filter="url(#la)"><path d="M4 3V1H0v42h4v-2c0-4 12-5 12-10V13C16 8 4 7 4 3z" fill="#656c6a"/></g><path d="M4 44H0V0h4v1S2 9.429 2 22c0 13.129 2 21 2 21v1z" fill="#656c6a"/><g filter="url(#lb)"><path d="M4 28h7v-2H4v2zm0-5h7v-2H4v2zm0-7v2h7v-2H4z" fill="#f3f2ef"/></g><path d="M4 28h7v-2H4v2zm0-5h7v-2H4v2zm0-7v2h7v-2H4z" fill="#f3f2ef"/></svg><svg viewBox="0 0 8 14" width="8" height="14" id="sli-pfeil-rechts" x="80" y="18" xmlns="http://www.w3.org/2000/svg"><path d="M6.484 6.118L2.315 1.283a.77.77 0 0 0-1.107-.089c-.326.289-.324.755-.046 1.092l3.494 4.11A.955.955 0 0 1 4.879 7a.96.96 0 0 1-.223.605l-3.494 4.11c-.278.337-.28.803.046 1.092.33.292.82.247 1.107-.089l4.169-4.836c.334-.34.47-.622.474-.882-.004-.26-.14-.542-.474-.882z" fill-rule="evenodd" clip-rule="evenodd" fill="#555b5d"/></svg><svg viewBox="0 0 14 8.083" width="14" height="8.08" id="sli-pfeil-runter" x="90" y="64" xmlns="http://www.w3.org/2000/svg"><path d="M7.882 6.526l4.836-4.169a.771.771 0 0 0 .089-1.107c-.289-.326-.755-.325-1.092-.046l-4.11 3.494A.965.965 0 0 1 7 4.921a.965.965 0 0 1-.605-.223l-4.11-3.494c-.336-.279-.802-.28-1.091.046a.77.77 0 0 0 .089 1.107l4.836 4.169c.339.334.621.469.881.474.26-.005.542-.14.882-.474z" fill-rule="evenodd" clip-rule="evenodd" fill="#5eb226"/></svg><svg viewBox="0 0 16 16" width="16" height="16" id="sli-radiobutton" x="32" y="76" xmlns="http://www.w3.org/2000/svg"><linearGradient id="oa" gradientUnits="userSpaceOnUse" x1="3.847" y1="1069.602" x2="21.348" y2="1079.707" gradientTransform="translate(0 -1064)"><stop offset=".004" stop-color="#99dc2e"/><stop offset="1" stop-color="#469900"/></linearGradient><circle cx="8" cy="8" r="5" fill="url(#oa)"/></svg><svg viewBox="0 0 16 16" width="16" height="16" id="sli-radiobutton-disabled" x="16" y="76" xmlns="http://www.w3.org/2000/svg"><circle cx="8" cy="8" r="5" fill="#bebebe"/></svg><svg viewBox="0 0 12 12" width="12" height="12" id="sli-schliessen" x="48" y="32" xmlns="http://www.w3.org/2000/svg"><path d="M10.768 1.232a.793.793 0 0 0-1.122 0L5.986 4.89 2.354 1.235a.791.791 0 1 0-1.122 1.117l3.647 3.645-3.646 3.645a.793.793 0 0 0 1.122 1.121L6 7.119l3.657 3.655a.771.771 0 1 0 1.094-1.089L7.104 6.016l3.664-3.662a.795.795 0 0 0 0-1.122z" fill="#555b5d"/></svg></svg>